<svg width="148" height="48" viewBox="0 0 148 48" fill="none" xmlns="http://www.w3.org/2000/svg">
<path d="M11.1 39L9 36.9L19.35 26.5125L24.6 31.7625L32.3625 24L34.5 26.1375L24.6 36L19.35 30.75L11.1 39ZM6 37.5C5.175 37.5 4.4685 37.206 3.8805 36.618C3.2925 36.03 2.999 35.324 3 34.5V13.5C3 12.675 3.294 11.9685 3.882 11.3805C4.47 10.7925 5.176 10.499 6 10.5H27C27.825 10.5 28.5315 10.794 29.1195 11.382C29.7075 11.97 30.001 12.676 30 13.5V19.8H6V37.5Z" fill="#FF6848"/>
<path d="M11.1 39L9 36.9L19.35 26.5125L24.6 31.7625L32.3625 24L34.5 26.1375L24.6 36L19.35 30.75L11.1 39Z" fill="#FF6848"/>
<path d="M61.8361 11.666H65.5221V38H61.8361V25.84H48.9541V38H45.2681V11.666H48.9541V22.648H61.8361V11.666Z" fill="#1A1A1A"/>
<path d="M89.275 28.12C89.275 29.6907 89.047 31.1093 88.591 32.376C88.135 33.6427 87.489 34.732 86.653 35.644C85.8424 36.556 84.867 37.2653 83.727 37.772C82.587 38.2533 81.3457 38.494 80.003 38.494C78.6604 38.494 77.419 38.2533 76.279 37.772C75.139 37.2653 74.151 36.556 73.315 35.644C72.5044 34.732 71.871 33.6427 71.415 32.376C70.959 31.1093 70.731 29.6907 70.731 28.12C70.731 26.5747 70.959 25.1687 71.415 23.902C71.871 22.61 72.5044 21.508 73.315 20.596C74.151 19.684 75.139 18.9873 76.279 18.506C77.419 17.9993 78.6604 17.746 80.003 17.746C81.3457 17.746 82.587 17.9993 83.727 18.506C84.867 18.9873 85.8424 19.684 86.653 20.596C87.489 21.508 88.135 22.61 88.591 23.902C89.047 25.1687 89.275 26.5747 89.275 28.12ZM85.589 28.12C85.589 25.8907 85.0824 24.13 84.069 22.838C83.081 21.5207 81.7257 20.862 80.003 20.862C78.2804 20.862 76.9124 21.5207 75.899 22.838C74.911 24.13 74.417 25.8907 74.417 28.12C74.417 30.3493 74.911 32.1227 75.899 33.44C76.9124 34.732 78.2804 35.378 80.003 35.378C81.7257 35.378 83.081 34.732 84.069 33.44C85.0824 32.1227 85.589 30.3493 85.589 28.12Z" fill="#1A1A1A"/>
<path d="M101.543 17.822C101.847 17.822 102.189 17.8473 102.569 17.898C102.974 17.9233 103.367 17.974 103.747 18.05C104.127 18.1007 104.469 18.164 104.773 18.24C105.102 18.2907 105.343 18.3413 105.495 18.392L104.887 21.47C104.608 21.3687 104.14 21.2547 103.481 21.128C102.848 20.976 102.024 20.9 101.011 20.9C100.352 20.9 99.6938 20.976 99.0351 21.128C98.4018 21.2547 97.9838 21.3433 97.7811 21.394V38H94.2471V19.076C95.0831 18.772 96.1218 18.4933 97.3631 18.24C98.6044 17.9613 99.9978 17.822 101.543 17.822Z" fill="#1A1A1A"/>
<path d="M115.593 35.454C116.429 35.454 117.164 35.4413 117.797 35.416C118.456 35.3653 119.001 35.2893 119.431 35.188V29.298C119.178 29.1713 118.76 29.07 118.177 28.994C117.62 28.8927 116.936 28.842 116.125 28.842C115.593 28.842 115.023 28.88 114.415 28.956C113.833 29.032 113.288 29.1967 112.781 29.45C112.3 29.678 111.895 30.0073 111.565 30.438C111.236 30.8433 111.071 31.388 111.071 32.072C111.071 33.3387 111.477 34.2253 112.287 34.732C113.098 35.2133 114.2 35.454 115.593 35.454ZM115.289 17.746C116.708 17.746 117.899 17.936 118.861 18.316C119.849 18.6707 120.635 19.19 121.217 19.874C121.825 20.5327 122.256 21.3307 122.509 22.268C122.763 23.18 122.889 24.1933 122.889 25.308V37.658C122.585 37.7087 122.155 37.7847 121.597 37.886C121.065 37.962 120.457 38.038 119.773 38.114C119.089 38.19 118.342 38.2533 117.531 38.304C116.746 38.38 115.961 38.418 115.175 38.418C114.061 38.418 113.035 38.304 112.097 38.076C111.16 37.848 110.349 37.4933 109.665 37.012C108.981 36.5053 108.449 35.8467 108.069 35.036C107.689 34.2253 107.499 33.25 107.499 32.11C107.499 31.0207 107.715 30.0833 108.145 29.298C108.601 28.5127 109.209 27.8793 109.969 27.398C110.729 26.9167 111.616 26.562 112.629 26.334C113.643 26.106 114.707 25.992 115.821 25.992C116.176 25.992 116.543 26.0173 116.923 26.068C117.303 26.0933 117.658 26.144 117.987 26.22C118.342 26.2707 118.646 26.3213 118.899 26.372C119.153 26.4227 119.33 26.4607 119.431 26.486V25.498C119.431 24.9153 119.368 24.3453 119.241 23.788C119.115 23.2053 118.887 22.6987 118.557 22.268C118.228 21.812 117.772 21.4573 117.189 21.204C116.632 20.9253 115.897 20.786 114.985 20.786C113.82 20.786 112.794 20.8747 111.907 21.052C111.046 21.204 110.4 21.3687 109.969 21.546L109.551 18.62C110.007 18.4173 110.767 18.2273 111.831 18.05C112.895 17.8473 114.048 17.746 115.289 17.746Z" fill="#1A1A1A"/>
<path d="M127.657 28.158C127.657 26.41 127.91 24.89 128.417 23.598C128.923 22.2807 129.595 21.1913 130.431 20.33C131.267 19.4687 132.229 18.8227 133.319 18.392C134.408 17.9613 135.523 17.746 136.663 17.746C139.323 17.746 141.362 18.582 142.781 20.254C144.199 21.9007 144.909 24.4214 144.909 27.816C144.909 27.968 144.909 28.1707 144.909 28.424C144.909 28.652 144.896 28.8673 144.871 29.07H131.343C131.495 31.122 132.09 32.68 133.129 33.744C134.167 34.808 135.789 35.34 137.993 35.34C139.234 35.34 140.273 35.2387 141.109 35.036C141.97 34.808 142.616 34.5927 143.047 34.39L143.541 37.354C143.11 37.582 142.35 37.8227 141.261 38.076C140.197 38.3293 138.981 38.456 137.613 38.456C135.89 38.456 134.395 38.2027 133.129 37.696C131.887 37.164 130.861 36.442 130.051 35.53C129.24 34.618 128.632 33.5413 128.227 32.3C127.847 31.0333 127.657 29.6527 127.657 28.158ZM141.223 26.22C141.248 24.624 140.843 23.3193 140.007 22.306C139.196 21.2673 138.069 20.748 136.625 20.748C135.814 20.748 135.092 20.9127 134.459 21.242C133.851 21.546 133.331 21.9513 132.901 22.458C132.47 22.9647 132.128 23.5473 131.875 24.206C131.647 24.8647 131.495 25.536 131.419 26.22H141.223Z" fill="#1A1A1A"/>
</svg>
