<svg width="32" height="29" viewBox="0 0 32 29" fill="none" xmlns="http://www.w3.org/2000/svg">
<path d="M8.1 29L6 26.9L16.35 16.5125L21.6 21.7625L29.3625 14L31.5 16.1375L21.6 26L16.35 20.75L8.1 29ZM3 27.5C2.175 27.5 1.4685 27.206 0.880502 26.618C0.292502 26.03 -0.000997453 25.324 2.54669e-06 24.5V3.5C2.54669e-06 2.675 0.294003 1.9685 0.882003 1.3805C1.47 0.792502 2.176 0.499003 3 0.500003H24C24.825 0.500003 25.5315 0.794003 26.1195 1.382C26.7075 1.97 27.001 2.676 27 3.5V9.8H3V27.5Z" fill="#FF6848"/>
</svg>
